<?xml version="1.0" encoding="UTF-8" standalone="no"?>
<!DOCTYPE svg PUBLIC "-//W3C//DTD SVG 1.1//EN"
"http://www.w3.org/Graphics/SVG/1.1/DTD/svg11.dtd">
<svg viewBox="0 0 640 909" version="1.1" xmlns="http://www.w3.org/2000/svg" xmlns:xlink="http://www.w3.org/1999/xlink">
<defs>
<style type="text/css"><![CDATA[
.g0{
fill: #F4B083;
}
.g1{
fill: #FBE4D5;
}
.g2{
fill: #8EAADB;
}
.g3{
fill: #D9E2F3;
}
.g4{
}
.g5{
fill: #CCCCCC;
}
.g6{
fill: #FFFFFF;
}
.g7{
fill: none;
stroke: #FFFFFF;
stroke-width: 0.733;
stroke-linecap: butt;
stroke-linejoin: round;
}
]]></style>
</defs>
<path fill-rule="evenodd" d="M110,282.5h.8v-.7H110v.7Z" class="g0"/>
<path fill-rule="evenodd" d="M110,282.5h.8v-.7H110v.7Z" class="g0"/>
<path fill-rule="evenodd" d="M110.8,282.5h35.7v-.7H110.8v.7Z" class="g0"/>
<path fill-rule="evenodd" d="M146.5,282.5h.8v-.7h-.8v.7Z" class="g0"/>
<path fill-rule="evenodd" d="M147.3,282.5H183v-.7H147.3v.7Z" class="g0"/>
<path fill-rule="evenodd" d="M183,282.5h.7v-.7H183v.7Z" class="g0"/>
<path fill-rule="evenodd" d="M183.7,282.5h36v-.7h-36v.7Z" class="g0"/>
<path fill-rule="evenodd" d="M219.7,282.5h.7v-.7h-.7v.7Z" class="g0"/>
<path fill-rule="evenodd" d="M220.4,282.5h35.8v-.7H220.4v.7Z" class="g0"/>
<path fill-rule="evenodd" d="M256.2,282.5h.7v-.7h-.7v.7Z" class="g0"/>
<path fill-rule="evenodd" d="M256.9,282.5h35.8v-.7H256.9v.7Z" class="g0"/>
<path fill-rule="evenodd" d="M292.7,282.5h.7v-.7h-.7v.7Z" class="g0"/>
<path fill-rule="evenodd" d="M292.7,282.5h.7v-.7h-.7v.7Z" class="g0"/>
<path fill-rule="evenodd" d="M110,303.1h.8V282.6H110v20.5Z" class="g0"/>
<path fill-rule="evenodd" d="M146.5,303.1h.8V282.6h-.8v20.5Z" class="g0"/>
<path fill-rule="evenodd" d="M183,303.1h.7V282.6H183v20.5Z" class="g0"/>
<path fill-rule="evenodd" d="M219.7,303.1h.7V282.6h-.7v20.5Z" class="g0"/>
<path fill-rule="evenodd" d="M256.2,303.1h.7V282.6h-.7v20.5Z" class="g0"/>
<path fill-rule="evenodd" d="M292.7,303.1h.7V282.6h-.7v20.5Z" class="g0"/>
<path fill-rule="evenodd" d="M110.8,326h35.7V305.5H110.8V326Z" class="g1"/>
<path fill-rule="evenodd" d="M118.7,326h19.9V305.5H118.7V326Z" class="g1"/>
<path fill-rule="evenodd" d="M147.3,326H183V305.5H147.3V326Z" class="g1"/>
<path fill-rule="evenodd" d="M155.1,326h20V305.5h-20V326Z" class="g1"/>
<path fill-rule="evenodd" d="M183.9,326h35.6V305.5H183.9V326Z" class="g1"/>
<path fill-rule="evenodd" d="M191.6,326h20.2V305.5H191.6V326Z" class="g1"/>
<path fill-rule="evenodd" d="M220.4,326h35.8V305.5H220.4V326Z" class="g1"/>
<path fill-rule="evenodd" d="M228.3,326h20V305.5h-20V326Z" class="g1"/>
<path fill-rule="evenodd" d="M256.9,326h35.8V305.5H256.9V326Z" class="g1"/>
<path fill-rule="evenodd" d="M264.8,326h20V305.5h-20V326Z" class="g1"/>
<path fill-rule="evenodd" d="M110,305.5h.8v-2.4H110v2.4Z" class="g0"/>
<path fill-rule="evenodd" d="M110.8,305.3h35.7v-2.2H110.8v2.2Z" class="g0"/>
<path fill-rule="evenodd" d="M110.8,305.5h35.7v-.2H110.8v.2Z" class="g1"/>
<path fill-rule="evenodd" d="M147.3,305.5h1.4v-.2h-1.4v.2Z" class="g1"/>
<path fill-rule="evenodd" d="M146.5,305.5h.8v-.2h-.8v.2Z" class="g0"/>
<path fill-rule="evenodd" d="M146.5,305.3h2.2v-2.2h-2.2v2.2Z" class="g0"/>
<path fill-rule="evenodd" d="M148.7,305.3H183v-2.2H148.7v2.2Z" class="g0"/>
<path fill-rule="evenodd" d="M148.7,305.5H183v-.2H148.7v.2Z" class="g1"/>
<path fill-rule="evenodd" d="M183.7,305.5h1.5v-.2h-1.5v.2Z" class="g1"/>
<path fill-rule="evenodd" d="M183,305.5h.7v-.2H183v.2Z" class="g0"/>
<path fill-rule="evenodd" d="M183,305.3h2.2v-2.2H183v2.2Z" class="g0"/>
<path fill-rule="evenodd" d="M185.2,305.3h34.5v-2.2H185.2v2.2Z" class="g0"/>
<path fill-rule="evenodd" d="M185.2,305.5h34.5v-.2H185.2v.2Z" class="g1"/>
<path fill-rule="evenodd" d="M220.4,305.5h1.5v-.2h-1.5v.2Z" class="g1"/>
<path fill-rule="evenodd" d="M219.7,305.5h.7v-.2h-.7v.2Z" class="g0"/>
<path fill-rule="evenodd" d="M219.7,305.3h2.2v-2.2h-2.2v2.2Z" class="g0"/>
<path fill-rule="evenodd" d="M221.9,305.3h34.3v-2.2H221.9v2.2Z" class="g0"/>
<path fill-rule="evenodd" d="M221.9,305.5h34.3v-.2H221.9v.2Z" class="g1"/>
<path fill-rule="evenodd" d="M256.9,305.5h1.5v-.2h-1.5v.2Z" class="g1"/>
<path fill-rule="evenodd" d="M256.2,305.5h.7v-.2h-.7v.2Z" class="g0"/>
<path fill-rule="evenodd" d="M256.2,305.3h2.2v-2.2h-2.2v2.2Z" class="g0"/>
<path fill-rule="evenodd" d="M258.4,305.3h34.3v-2.2H258.4v2.2Z" class="g0"/>
<path fill-rule="evenodd" d="M258.4,305.5h34.3v-.2H258.4v.2Z" class="g1"/>
<path fill-rule="evenodd" d="M292.7,305.5h.7v-2.4h-.7v2.4Z" class="g0"/>
<path fill-rule="evenodd" d="M110,326h.8V305.5H110V326Z" class="g0"/>
<path fill-rule="evenodd" d="M110,326.8h.8V326H110v.8Z" class="g0"/>
<path fill-rule="evenodd" d="M110,326.8h.8V326H110v.8Z" class="g0"/>
<path fill-rule="evenodd" d="M110.8,326.8h35.7V326H110.8v.8Z" class="g0"/>
<path fill-rule="evenodd" d="M146.5,326h.8V305.5h-.8V326Z" class="g0"/>
<path fill-rule="evenodd" d="M146.5,326.8h.8V326h-.8v.8Z" class="g0"/>
<path fill-rule="evenodd" d="M147.3,326.8H183V326H147.3v.8Z" class="g0"/>
<path fill-rule="evenodd" d="M183,326h.7V305.5H183V326Z" class="g0"/>
<path fill-rule="evenodd" d="M183,326.8h.7V326H183v.8Z" class="g0"/>
<path fill-rule="evenodd" d="M183.7,326.8h36V326h-36v.8Z" class="g0"/>
<path fill-rule="evenodd" d="M219.7,326h.7V305.5h-.7V326Z" class="g0"/>
<path fill-rule="evenodd" d="M219.7,326.8h.7V326h-.7v.8Z" class="g0"/>
<path fill-rule="evenodd" d="M220.4,326.8h35.8V326H220.4v.8Z" class="g0"/>
<path fill-rule="evenodd" d="M256.2,326h.7V305.5h-.7V326Z" class="g0"/>
<path fill-rule="evenodd" d="M256.2,326.8h.7V326h-.7v.8Z" class="g0"/>
<path fill-rule="evenodd" d="M256.9,326.8h35.8V326H256.9v.8Z" class="g0"/>
<path fill-rule="evenodd" d="M292.7,326h.7V305.5h-.7V326Z" class="g0"/>
<path fill-rule="evenodd" d="M292.7,326.8h.7V326h-.7v.8Z" class="g0"/>
<path fill-rule="evenodd" d="M292.7,326.8h.7V326h-.7v.8Z" class="g0"/>
<path fill-rule="evenodd" d="M110,361.8h.8v-.7H110v.7Z" class="g2"/>
<path fill-rule="evenodd" d="M110,361.8h.8v-.7H110v.7Z" class="g2"/>
<path fill-rule="evenodd" d="M110.8,361.8h35.5v-.7H110.8v.7Z" class="g2"/>
<path fill-rule="evenodd" d="M146.3,361.8h.8v-.7h-.8v.7Z" class="g2"/>
<path fill-rule="evenodd" d="M147.1,361.8h35.5v-.7H147.1v.7Z" class="g2"/>
<path fill-rule="evenodd" d="M182.6,361.8h.8v-.7h-.8v.7Z" class="g2"/>
<path fill-rule="evenodd" d="M183.4,361.8h35.4v-.7H183.4v.7Z" class="g2"/>
<path fill-rule="evenodd" d="M218.8,361.8h.7v-.7h-.7v.7Z" class="g2"/>
<path fill-rule="evenodd" d="M219.5,361.8h35.6v-.7H219.5v.7Z" class="g2"/>
<path fill-rule="evenodd" d="M255.1,361.8h.7v-.7h-.7v.7Z" class="g2"/>
<path fill-rule="evenodd" d="M255.8,361.8h36.9v-.7H255.8v.7Z" class="g2"/>
<path fill-rule="evenodd" d="M292.7,361.8h.7v-.7h-.7v.7Z" class="g2"/>
<path fill-rule="evenodd" d="M292.7,361.8h.7v-.7h-.7v.7Z" class="g2"/>
<path fill-rule="evenodd" d="M110,382.3h.8V361.8H110v20.5Z" class="g2"/>
<path fill-rule="evenodd" d="M146.3,382.3h.8V361.8h-.8v20.5Z" class="g2"/>
<path fill-rule="evenodd" d="M182.6,382.3h.8V361.8h-.8v20.5Z" class="g2"/>
<path fill-rule="evenodd" d="M218.8,382.3h.7V361.8h-.7v20.5Z" class="g2"/>
<path fill-rule="evenodd" d="M255.1,382.3h.7V361.8h-.7v20.5Z" class="g2"/>
<path fill-rule="evenodd" d="M292.7,382.3h.7V361.8h-.7v20.5Z" class="g2"/>
<path fill-rule="evenodd" d="M110.8,405.2h35.5V384.7H110.8v20.5Z" class="g3"/>
<path fill-rule="evenodd" d="M118.7,405.2h19.8V384.7H118.7v20.5Z" class="g3"/>
<path fill-rule="evenodd" d="M147.1,405.2h35.4V384.7H147.1v20.5Z" class="g3"/>
<path fill-rule="evenodd" d="M154.9,405.2h19.7V384.7H154.9v20.5Z" class="g3"/>
<path fill-rule="evenodd" d="M183.4,405.2h35.4V384.7H183.4v20.5Z" class="g3"/>
<path fill-rule="evenodd" d="M191.1,405.2h19.8V384.7H191.1v20.5Z" class="g3"/>
<path fill-rule="evenodd" d="M219.5,405.2h35.4V384.7H219.5v20.5Z" class="g3"/>
<path fill-rule="evenodd" d="M227.4,405.2H247V384.7H227.4v20.5Z" class="g3"/>
<path fill-rule="evenodd" d="M255.8,405.2h36.9V384.7H255.8v20.5Z" class="g3"/>
<path fill-rule="evenodd" d="M263.7,405.2h21.1V384.7H263.7v20.5Z" class="g3"/>
<path fill-rule="evenodd" d="M110,384.7h.8v-2.4H110v2.4Z" class="g2"/>
<path fill-rule="evenodd" d="M110.8,384.5h35.5v-2.2H110.8v2.2Z" class="g2"/>
<path fill-rule="evenodd" d="M110.8,384.7h35.5v-.2H110.8v.2Z" class="g3"/>
<path fill-rule="evenodd" d="M147.1,384.7h1.4v-.2h-1.4v.2Z" class="g3"/>
<path fill-rule="evenodd" d="M146.3,384.7h.8v-.2h-.8v.2Z" class="g2"/>
<path fill-rule="evenodd" d="M146.3,384.5h2.2v-2.2h-2.2v2.2Z" class="g2"/>
<path fill-rule="evenodd" d="M148.5,384.5h34.1v-2.2H148.5v2.2Z" class="g2"/>
<path fill-rule="evenodd" d="M148.5,384.7h34.1v-.2H148.5v.2Z" class="g3"/>
<path fill-rule="evenodd" d="M183.4,384.7h1.4v-.2h-1.4v.2Z" class="g3"/>
<path fill-rule="evenodd" d="M182.6,384.7h.8v-.2h-.8v.2Z" class="g2"/>
<path fill-rule="evenodd" d="M182.6,384.5h2.2v-2.2h-2.2v2.2Z" class="g2"/>
<path fill-rule="evenodd" d="M184.8,384.5h34v-2.2h-34v2.2Z" class="g2"/>
<path fill-rule="evenodd" d="M184.8,384.7h34v-.2h-34v.2Z" class="g3"/>
<path fill-rule="evenodd" d="M219.5,384.7H221v-.2h-1.5v.2Z" class="g3"/>
<path fill-rule="evenodd" d="M218.8,384.7h.7v-.2h-.7v.2Z" class="g2"/>
<path fill-rule="evenodd" d="M218.8,384.5H221v-2.2h-2.2v2.2Z" class="g2"/>
<path fill-rule="evenodd" d="M221,384.5h34.1v-2.2H221v2.2Z" class="g2"/>
<path fill-rule="evenodd" d="M221,384.7h34.1v-.2H221v.2Z" class="g3"/>
<path fill-rule="evenodd" d="M255.8,384.7h1.5v-.2h-1.5v.2Z" class="g3"/>
<path fill-rule="evenodd" d="M255.1,384.7h.7v-.2h-.7v.2Z" class="g2"/>
<path fill-rule="evenodd" d="M255.1,384.5h2.2v-2.2h-2.2v2.2Z" class="g2"/>
<path fill-rule="evenodd" d="M257.3,384.5h35.4v-2.2H257.3v2.2Z" class="g2"/>
<path fill-rule="evenodd" d="M257.3,384.7h35.4v-.2H257.3v.2Z" class="g3"/>
<path fill-rule="evenodd" d="M292.7,384.7h.7v-2.4h-.7v2.4Z" class="g2"/>
<path fill-rule="evenodd" d="M110,405.2h.8V384.7H110v20.5Z" class="g2"/>
<path fill-rule="evenodd" d="M110,406h.8v-.8H110v.8Z" class="g2"/>
<path fill-rule="evenodd" d="M110,406h.8v-.8H110v.8Z" class="g2"/>
<path fill-rule="evenodd" d="M110.8,406h35.5v-.8H110.8v.8Z" class="g2"/>
<path fill-rule="evenodd" d="M146.3,405.2h.8V384.7h-.8v20.5Z" class="g2"/>
<path fill-rule="evenodd" d="M146.3,406h.8v-.8h-.8v.8Z" class="g2"/>
<path fill-rule="evenodd" d="M147.1,406h35.5v-.8H147.1v.8Z" class="g2"/>
<path fill-rule="evenodd" d="M182.6,405.2h.8V384.7h-.8v20.5Z" class="g2"/>
<path fill-rule="evenodd" d="M182.6,406h.8v-.8h-.8v.8Z" class="g2"/>
<path fill-rule="evenodd" d="M183.4,406h35.4v-.8H183.4v.8Z" class="g2"/>
<path fill-rule="evenodd" d="M218.8,405.2h.7V384.7h-.7v20.5Z" class="g2"/>
<path fill-rule="evenodd" d="M218.8,406h.7v-.8h-.7v.8Z" class="g2"/>
<path fill-rule="evenodd" d="M219.5,406h35.6v-.8H219.5v.8Z" class="g2"/>
<path fill-rule="evenodd" d="M255.1,405.2h.7V384.7h-.7v20.5Z" class="g2"/>
<path fill-rule="evenodd" d="M255.1,406h.7v-.8h-.7v.8Z" class="g2"/>
<path fill-rule="evenodd" d="M255.8,406h36.9v-.8H255.8v.8Z" class="g2"/>
<path fill-rule="evenodd" d="M292.7,405.2h.7V384.7h-.7v20.5Z" class="g2"/>
<path fill-rule="evenodd" d="M292.7,406h.7v-.8h-.7v.8Z" class="g2"/>
<path fill-rule="evenodd" d="M292.7,406h.7v-.8h-.7v.8Z" class="g2"/>
<path fill-rule="evenodd" d="M110,441h.8v-.7H110v.7Z" class="g0"/>
<path fill-rule="evenodd" d="M110,441h.8v-.7H110v.7Z" class="g0"/>
<path fill-rule="evenodd" d="M110.8,441h35.7v-.7H110.8v.7Z" class="g0"/>
<path fill-rule="evenodd" d="M146.5,441h.8v-.7h-.8v.7Z" class="g0"/>
<path fill-rule="evenodd" d="M147.3,441H183v-.7H147.3v.7Z" class="g0"/>
<path fill-rule="evenodd" d="M183,441h.7v-.7H183v.7Z" class="g0"/>
<path fill-rule="evenodd" d="M183.7,441h36v-.7h-36v.7Z" class="g0"/>
<path fill-rule="evenodd" d="M219.7,441h.7v-.7h-.7v.7Z" class="g0"/>
<path fill-rule="evenodd" d="M220.4,441h35.8v-.7H220.4v.7Z" class="g0"/>
<path fill-rule="evenodd" d="M256.2,441h.7v-.7h-.7v.7Z" class="g0"/>
<path fill-rule="evenodd" d="M256.9,441h35.8v-.7H256.9v.7Z" class="g0"/>
<path fill-rule="evenodd" d="M292.7,441h.7v-.7h-.7v.7Z" class="g0"/>
<path fill-rule="evenodd" d="M292.7,441h.7v-.7h-.7v.7Z" class="g0"/>
<path fill-rule="evenodd" d="M110,461.5h.8V441H110v20.5Z" class="g0"/>
<path fill-rule="evenodd" d="M146.5,461.5h.8V441h-.8v20.5Z" class="g0"/>
<path fill-rule="evenodd" d="M183,461.5h.7V441H183v20.5Z" class="g0"/>
<path fill-rule="evenodd" d="M219.7,461.5h.7V441h-.7v20.5Z" class="g0"/>
<path fill-rule="evenodd" d="M256.2,461.5h.7V441h-.7v20.5Z" class="g0"/>
<path fill-rule="evenodd" d="M292.7,461.5h.7V441h-.7v20.5Z" class="g0"/>
<path fill-rule="evenodd" d="M110.8,484.5h35.7V463.9H110.8v20.6Z" class="g1"/>
<path fill-rule="evenodd" d="M118.7,484.5h19.9V463.9H118.7v20.6Z" class="g1"/>
<path fill-rule="evenodd" d="M147.3,484.5H183V463.9H147.3v20.6Z" class="g1"/>
<path fill-rule="evenodd" d="M155.1,484.5h20V463.9h-20v20.6Z" class="g1"/>
<path fill-rule="evenodd" d="M183.9,484.5h35.6V463.9H183.9v20.6Z" class="g1"/>
<path fill-rule="evenodd" d="M191.6,484.5h20.2V463.9H191.6v20.6Z" class="g1"/>
<path fill-rule="evenodd" d="M220.4,484.5h35.8V463.9H220.4v20.6Z" class="g1"/>
<path fill-rule="evenodd" d="M228.3,484.5h20V463.9h-20v20.6Z" class="g1"/>
<path fill-rule="evenodd" d="M256.9,484.5h35.8V463.9H256.9v20.6Z" class="g1"/>
<path fill-rule="evenodd" d="M264.8,484.5h20V463.9h-20v20.6Z" class="g1"/>
<path fill-rule="evenodd" d="M110,463.9h.8v-2.4H110v2.4Z" class="g0"/>
<path fill-rule="evenodd" d="M110.8,463.7h35.7v-2.2H110.8v2.2Z" class="g0"/>
<path fill-rule="evenodd" d="M110.8,463.9h35.7v-.2H110.8v.2Z" class="g1"/>
<path fill-rule="evenodd" d="M147.3,463.9h1.4v-.2h-1.4v.2Z" class="g1"/>
<path fill-rule="evenodd" d="M146.5,463.9h.8v-.2h-.8v.2Z" class="g0"/>
<path fill-rule="evenodd" d="M146.5,463.7h2.2v-2.2h-2.2v2.2Z" class="g0"/>
<path fill-rule="evenodd" d="M148.7,463.7H183v-2.2H148.7v2.2Z" class="g0"/>
<path fill-rule="evenodd" d="M148.7,463.9H183v-.2H148.7v.2Z" class="g1"/>
<path fill-rule="evenodd" d="M183.7,463.9h1.5v-.2h-1.5v.2Z" class="g1"/>
<path fill-rule="evenodd" d="M183,463.9h.7v-.2H183v.2Z" class="g0"/>
<path fill-rule="evenodd" d="M183,463.7h2.2v-2.2H183v2.2Z" class="g0"/>
<path fill-rule="evenodd" d="M185.2,463.7h34.5v-2.2H185.2v2.2Z" class="g0"/>
<path fill-rule="evenodd" d="M185.2,463.9h34.5v-.2H185.2v.2Z" class="g1"/>
<path fill-rule="evenodd" d="M220.4,463.9h1.5v-.2h-1.5v.2Z" class="g1"/>
<path fill-rule="evenodd" d="M219.7,463.9h.7v-.2h-.7v.2Z" class="g0"/>
<path fill-rule="evenodd" d="M219.7,463.7h2.2v-2.2h-2.2v2.2Z" class="g0"/>
<path fill-rule="evenodd" d="M221.9,463.7h34.3v-2.2H221.9v2.2Z" class="g0"/>
<path fill-rule="evenodd" d="M221.9,463.9h34.3v-.2H221.9v.2Z" class="g1"/>
<path fill-rule="evenodd" d="M256.9,463.9h1.5v-.2h-1.5v.2Z" class="g1"/>
<path fill-rule="evenodd" d="M256.2,463.9h.7v-.2h-.7v.2Z" class="g0"/>
<path fill-rule="evenodd" d="M256.2,463.7h2.2v-2.2h-2.2v2.2Z" class="g0"/>
<path fill-rule="evenodd" d="M258.4,463.7h34.3v-2.2H258.4v2.2Z" class="g0"/>
<path fill-rule="evenodd" d="M258.4,463.9h34.3v-.2H258.4v.2Z" class="g1"/>
<path fill-rule="evenodd" d="M292.7,463.9h.7v-2.4h-.7v2.4Z" class="g0"/>
<path fill-rule="evenodd" d="M110,484.5h.8V463.9H110v20.6Z" class="g0"/>
<path fill-rule="evenodd" d="M110,485.2h.8v-.7H110v.7Z" class="g0"/>
<path fill-rule="evenodd" d="M110,485.2h.8v-.7H110v.7Z" class="g0"/>
<path fill-rule="evenodd" d="M110.8,485.2h35.7v-.7H110.8v.7Z" class="g0"/>
<path fill-rule="evenodd" d="M146.5,484.5h.8V463.9h-.8v20.6Z" class="g0"/>
<path fill-rule="evenodd" d="M146.5,485.2h.8v-.7h-.8v.7Z" class="g0"/>
<path fill-rule="evenodd" d="M147.3,485.2H183v-.7H147.3v.7Z" class="g0"/>
<path fill-rule="evenodd" d="M183,484.5h.7V463.9H183v20.6Z" class="g0"/>
<path fill-rule="evenodd" d="M183,485.2h.7v-.7H183v.7Z" class="g0"/>
<path fill-rule="evenodd" d="M183.7,485.2h36v-.7h-36v.7Z" class="g0"/>
<path fill-rule="evenodd" d="M219.7,484.5h.7V463.9h-.7v20.6Z" class="g0"/>
<path fill-rule="evenodd" d="M219.7,485.2h.7v-.7h-.7v.7Z" class="g0"/>
<path fill-rule="evenodd" d="M220.4,485.2h35.8v-.7H220.4v.7Z" class="g0"/>
<path fill-rule="evenodd" d="M256.2,484.5h.7V463.9h-.7v20.6Z" class="g0"/>
<path fill-rule="evenodd" d="M256.2,485.2h.7v-.7h-.7v.7Z" class="g0"/>
<path fill-rule="evenodd" d="M256.9,485.2h35.8v-.7H256.9v.7Z" class="g0"/>
<path fill-rule="evenodd" d="M292.7,484.5h.7V463.9h-.7v20.6Z" class="g0"/>
<path fill-rule="evenodd" d="M292.7,485.2h.7v-.7h-.7v.7Z" class="g0"/>
<path fill-rule="evenodd" d="M292.7,485.2h.7v-.7h-.7v.7Z" class="g0"/>
<path fill-rule="evenodd" d="M110,520.2h.8v-.7H110v.7Z" class="g2"/>
<path fill-rule="evenodd" d="M110,520.2h.8v-.7H110v.7Z" class="g2"/>
<path fill-rule="evenodd" d="M110.8,520.2h35.7v-.7H110.8v.7Z" class="g2"/>
<path fill-rule="evenodd" d="M146.5,520.2h.8v-.7h-.8v.7Z" class="g2"/>
<path fill-rule="evenodd" d="M147.3,520.2H183v-.7H147.3v.7Z" class="g2"/>
<path fill-rule="evenodd" d="M183,520.2h.7v-.7H183v.7Z" class="g2"/>
<path fill-rule="evenodd" d="M183.7,520.2h36v-.7h-36v.7Z" class="g2"/>
<path fill-rule="evenodd" d="M219.7,520.2h.7v-.7h-.7v.7Z" class="g2"/>
<path fill-rule="evenodd" d="M220.4,520.2h35.8v-.7H220.4v.7Z" class="g2"/>
<path fill-rule="evenodd" d="M256.2,520.2h.7v-.7h-.7v.7Z" class="g2"/>
<path fill-rule="evenodd" d="M256.9,520.2h35.8v-.7H256.9v.7Z" class="g2"/>
<path fill-rule="evenodd" d="M292.7,520.2h.7v-.7h-.7v.7Z" class="g2"/>
<path fill-rule="evenodd" d="M292.7,520.2h.7v-.7h-.7v.7Z" class="g2"/>
<path fill-rule="evenodd" d="M110,540.8h.8V520.2H110v20.6Z" class="g2"/>
<path fill-rule="evenodd" d="M146.5,540.8h.8V520.2h-.8v20.6Z" class="g2"/>
<path fill-rule="evenodd" d="M183,540.8h.7V520.2H183v20.6Z" class="g2"/>
<path fill-rule="evenodd" d="M219.7,540.8h.7V520.2h-.7v20.6Z" class="g2"/>
<path fill-rule="evenodd" d="M256.2,540.8h.7V520.2h-.7v20.6Z" class="g2"/>
<path fill-rule="evenodd" d="M292.7,540.8h.7V520.2h-.7v20.6Z" class="g2"/>
<path fill-rule="evenodd" d="M110.8,563.7h35.7V543.1H110.8v20.6Z" class="g3"/>
<path fill-rule="evenodd" d="M118.7,563.7h19.9V543.1H118.7v20.6Z" class="g3"/>
<path fill-rule="evenodd" d="M147.3,563.7H183V543.1H147.3v20.6Z" class="g3"/>
<path fill-rule="evenodd" d="M155.1,563.7h20V543.1h-20v20.6Z" class="g3"/>
<path fill-rule="evenodd" d="M183.9,563.7h35.6V543.1H183.9v20.6Z" class="g3"/>
<path fill-rule="evenodd" d="M191.6,563.7h20.2V543.1H191.6v20.6Z" class="g3"/>
<path fill-rule="evenodd" d="M220.4,563.7h35.8V543.1H220.4v20.6Z" class="g3"/>
<path fill-rule="evenodd" d="M228.3,563.7h20V543.1h-20v20.6Z" class="g3"/>
<path fill-rule="evenodd" d="M256.9,563.7h35.8V543.1H256.9v20.6Z" class="g3"/>
<path fill-rule="evenodd" d="M264.8,563.7h20V543.1h-20v20.6Z" class="g3"/>
<path fill-rule="evenodd" d="M110,543.1h.8v-2.3H110v2.3Z" class="g2"/>
<path fill-rule="evenodd" d="M110.8,543h35.7v-2.2H110.8V543Z" class="g2"/>
<path fill-rule="evenodd" d="M110.8,543.1h35.7V543H110.8v.1Z" class="g3"/>
<path fill-rule="evenodd" d="M147.3,543.1h1.4V543h-1.4v.1Z" class="g3"/>
<path fill-rule="evenodd" d="M146.5,543.1h.8V543h-.8v.1Z" class="g2"/>
<path fill-rule="evenodd" d="M146.5,543h2.2v-2.2h-2.2V543Z" class="g2"/>
<path fill-rule="evenodd" d="M148.7,543H183v-2.2H148.7V543Z" class="g2"/>
<path fill-rule="evenodd" d="M148.7,543.1H183V543H148.7v.1Z" class="g3"/>
<path fill-rule="evenodd" d="M183.7,543.1h1.5V543h-1.5v.1Z" class="g3"/>
<path fill-rule="evenodd" d="M183,543.1h.7V543H183v.1Z" class="g2"/>
<path fill-rule="evenodd" d="M183,543h2.2v-2.2H183V543Z" class="g2"/>
<path fill-rule="evenodd" d="M185.2,543h34.5v-2.2H185.2V543Z" class="g2"/>
<path fill-rule="evenodd" d="M185.2,543.1h34.5V543H185.2v.1Z" class="g3"/>
<path fill-rule="evenodd" d="M220.4,543.1h1.5V543h-1.5v.1Z" class="g3"/>
<path fill-rule="evenodd" d="M219.7,543.1h.7V543h-.7v.1Z" class="g2"/>
<path fill-rule="evenodd" d="M219.7,543h2.2v-2.2h-2.2V543Z" class="g2"/>
<path fill-rule="evenodd" d="M221.9,543h34.3v-2.2H221.9V543Z" class="g2"/>
<path fill-rule="evenodd" d="M221.9,543.1h34.3V543H221.9v.1Z" class="g3"/>
<path fill-rule="evenodd" d="M256.9,543.1h1.5V543h-1.5v.1Z" class="g3"/>
<path fill-rule="evenodd" d="M256.2,543.1h.7V543h-.7v.1Z" class="g2"/>
<path fill-rule="evenodd" d="M256.2,543h2.2v-2.2h-2.2V543Z" class="g2"/>
<path fill-rule="evenodd" d="M258.4,543h34.3v-2.2H258.4V543Z" class="g2"/>
<path fill-rule="evenodd" d="M258.4,543.1h34.3V543H258.4v.1Z" class="g3"/>
<path fill-rule="evenodd" d="M292.7,543.1h.7v-2.3h-.7v2.3Z" class="g2"/>
<path fill-rule="evenodd" d="M110,563.7h.8V543.1H110v20.6Z" class="g2"/>
<path fill-rule="evenodd" d="M110,564.4h.8v-.7H110v.7Z" class="g2"/>
<path fill-rule="evenodd" d="M110,564.4h.8v-.7H110v.7Z" class="g2"/>
<path fill-rule="evenodd" d="M110.8,564.4h35.7v-.7H110.8v.7Z" class="g2"/>
<path fill-rule="evenodd" d="M146.5,563.7h.8V543.1h-.8v20.6Z" class="g2"/>
<path fill-rule="evenodd" d="M146.5,564.4h.8v-.7h-.8v.7Z" class="g2"/>
<path fill-rule="evenodd" d="M147.3,564.4H183v-.7H147.3v.7Z" class="g2"/>
<path fill-rule="evenodd" d="M183,563.7h.7V543.1H183v20.6Z" class="g2"/>
<path fill-rule="evenodd" d="M183,564.4h.7v-.7H183v.7Z" class="g2"/>
<path fill-rule="evenodd" d="M183.7,564.4h36v-.7h-36v.7Z" class="g2"/>
<path fill-rule="evenodd" d="M219.7,563.7h.7V543.1h-.7v20.6Z" class="g2"/>
<path fill-rule="evenodd" d="M219.7,564.4h.7v-.7h-.7v.7Z" class="g2"/>
<path fill-rule="evenodd" d="M220.4,564.4h35.8v-.7H220.4v.7Z" class="g2"/>
<path fill-rule="evenodd" d="M256.2,563.7h.7V543.1h-.7v20.6Z" class="g2"/>
<path fill-rule="evenodd" d="M256.2,564.4h.7v-.7h-.7v.7Z" class="g2"/>
<path fill-rule="evenodd" d="M256.9,564.4h35.8v-.7H256.9v.7Z" class="g2"/>
<path fill-rule="evenodd" d="M292.7,563.7h.7V543.1h-.7v20.6Z" class="g2"/>
<path fill-rule="evenodd" d="M292.7,564.4h.7v-.7h-.7v.7Z" class="g2"/>
<path fill-rule="evenodd" d="M292.7,564.4h.7v-.7h-.7v.7Z" class="g2"/>
<path fill-rule="evenodd" d="M110,599.4h.8v-.7H110v.7Z" class="g0"/>
<path fill-rule="evenodd" d="M110,599.4h.8v-.7H110v.7Z" class="g0"/>
<path fill-rule="evenodd" d="M110.8,599.4h35.7v-.7H110.8v.7Z" class="g0"/>
<path fill-rule="evenodd" d="M146.5,599.4h.8v-.7h-.8v.7Z" class="g0"/>
<path fill-rule="evenodd" d="M147.3,599.4H183v-.7H147.3v.7Z" class="g0"/>
<path fill-rule="evenodd" d="M183,599.4h.7v-.7H183v.7Z" class="g0"/>
<path fill-rule="evenodd" d="M183.7,599.4h36v-.7h-36v.7Z" class="g0"/>
<path fill-rule="evenodd" d="M219.7,599.4h.7v-.7h-.7v.7Z" class="g0"/>
<path fill-rule="evenodd" d="M220.4,599.4h35.8v-.7H220.4v.7Z" class="g0"/>
<path fill-rule="evenodd" d="M256.2,599.4h.7v-.7h-.7v.7Z" class="g0"/>
<path fill-rule="evenodd" d="M256.9,599.4h35.8v-.7H256.9v.7Z" class="g0"/>
<path fill-rule="evenodd" d="M292.7,599.4h.7v-.7h-.7v.7Z" class="g0"/>
<path fill-rule="evenodd" d="M292.7,599.4h.7v-.7h-.7v.7Z" class="g0"/>
<path fill-rule="evenodd" d="M110,620h.8V599.4H110V620Z" class="g0"/>
<path fill-rule="evenodd" d="M146.5,620h.8V599.4h-.8V620Z" class="g0"/>
<path fill-rule="evenodd" d="M183,620h.7V599.4H183V620Z" class="g0"/>
<path fill-rule="evenodd" d="M219.7,620h.7V599.4h-.7V620Z" class="g0"/>
<path fill-rule="evenodd" d="M256.2,620h.7V599.4h-.7V620Z" class="g0"/>
<path fill-rule="evenodd" d="M292.7,620h.7V599.4h-.7V620Z" class="g0"/>
<path fill-rule="evenodd" d="M110.8,642.9h35.7V622.3H110.8v20.6Z" class="g1"/>
<path fill-rule="evenodd" d="M118.7,642.9h19.9V622.3H118.7v20.6Z" class="g1"/>
<path fill-rule="evenodd" d="M147.3,642.9H183V622.3H147.3v20.6Z" class="g1"/>
<path fill-rule="evenodd" d="M155.1,642.9h20V622.3h-20v20.6Z" class="g1"/>
<path fill-rule="evenodd" d="M183.9,642.9h35.6V622.3H183.9v20.6Z" class="g1"/>
<path fill-rule="evenodd" d="M191.6,642.9h20.2V622.3H191.6v20.6Z" class="g1"/>
<path fill-rule="evenodd" d="M220.4,642.9h35.8V622.3H220.4v20.6Z" class="g1"/>
<path fill-rule="evenodd" d="M228.3,642.9h20V622.3h-20v20.6Z" class="g1"/>
<path fill-rule="evenodd" d="M256.9,642.9h35.8V622.3H256.9v20.6Z" class="g1"/>
<path fill-rule="evenodd" d="M264.8,642.9h20V622.3h-20v20.6Z" class="g1"/>
<path fill-rule="evenodd" d="M110,622.3h.8V620H110v2.3Z" class="g0"/>
<path fill-rule="evenodd" d="M110.8,622.2h35.7V620H110.8v2.2Z" class="g0"/>
<path fill-rule="evenodd" d="M110.8,622.3h35.7v-.1H110.8v.1Z" class="g1"/>
<path fill-rule="evenodd" d="M147.3,622.3h1.4v-.1h-1.4v.1Z" class="g1"/>
<path fill-rule="evenodd" d="M146.5,622.3h.8v-.1h-.8v.1Z" class="g0"/>
<path fill-rule="evenodd" d="M146.5,622.2h2.2V620h-2.2v2.2Z" class="g0"/>
<path fill-rule="evenodd" d="M148.7,622.2H183V620H148.7v2.2Z" class="g0"/>
<path fill-rule="evenodd" d="M148.7,622.3H183v-.1H148.7v.1Z" class="g1"/>
<path fill-rule="evenodd" d="M183.7,622.3h1.5v-.1h-1.5v.1Z" class="g1"/>
<path fill-rule="evenodd" d="M183,622.3h.7v-.1H183v.1Z" class="g0"/>
<path fill-rule="evenodd" d="M183,622.2h2.2V620H183v2.2Z" class="g0"/>
<path fill-rule="evenodd" d="M185.2,622.2h34.5V620H185.2v2.2Z" class="g0"/>
<path fill-rule="evenodd" d="M185.2,622.3h34.5v-.1H185.2v.1Z" class="g1"/>
<path fill-rule="evenodd" d="M220.4,622.3h1.5v-.1h-1.5v.1Z" class="g1"/>
<path fill-rule="evenodd" d="M219.7,622.3h.7v-.1h-.7v.1Z" class="g0"/>
<path fill-rule="evenodd" d="M219.7,622.2h2.2V620h-2.2v2.2Z" class="g0"/>
<path fill-rule="evenodd" d="M221.9,622.2h34.3V620H221.9v2.2Z" class="g0"/>
<path fill-rule="evenodd" d="M221.9,622.3h34.3v-.1H221.9v.1Z" class="g1"/>
<path fill-rule="evenodd" d="M256.9,622.3h1.5v-.1h-1.5v.1Z" class="g1"/>
<path fill-rule="evenodd" d="M256.2,622.3h.7v-.1h-.7v.1Z" class="g0"/>
<path fill-rule="evenodd" d="M256.2,622.2h2.2V620h-2.2v2.2Z" class="g0"/>
<path fill-rule="evenodd" d="M258.4,622.2h34.3V620H258.4v2.2Z" class="g0"/>
<path fill-rule="evenodd" d="M258.4,622.3h34.3v-.1H258.4v.1Z" class="g1"/>
<path fill-rule="evenodd" d="M292.7,622.3h.7V620h-.7v2.3Z" class="g0"/>
<path fill-rule="evenodd" d="M110,642.9h.8V622.3H110v20.6Z" class="g0"/>
<path fill-rule="evenodd" d="M110,643.6h.8v-.7H110v.7Z" class="g0"/>
<path fill-rule="evenodd" d="M110,643.6h.8v-.7H110v.7Z" class="g0"/>
<path fill-rule="evenodd" d="M110.8,643.6h35.7v-.7H110.8v.7Z" class="g0"/>
<path fill-rule="evenodd" d="M146.5,642.9h.8V622.3h-.8v20.6Z" class="g0"/>
<path fill-rule="evenodd" d="M146.5,643.6h.8v-.7h-.8v.7Z" class="g0"/>
<path fill-rule="evenodd" d="M147.3,643.6H183v-.7H147.3v.7Z" class="g0"/>
<path fill-rule="evenodd" d="M183,642.9h.7V622.3H183v20.6Z" class="g0"/>
<path fill-rule="evenodd" d="M183,643.6h.7v-.7H183v.7Z" class="g0"/>
<path fill-rule="evenodd" d="M183.7,643.6h36v-.7h-36v.7Z" class="g0"/>
<path fill-rule="evenodd" d="M219.7,642.9h.7V622.3h-.7v20.6Z" class="g0"/>
<path fill-rule="evenodd" d="M219.7,643.6h.7v-.7h-.7v.7Z" class="g0"/>
<path fill-rule="evenodd" d="M220.4,643.6h35.8v-.7H220.4v.7Z" class="g0"/>
<path fill-rule="evenodd" d="M256.2,642.9h.7V622.3h-.7v20.6Z" class="g0"/>
<path fill-rule="evenodd" d="M256.2,643.6h.7v-.7h-.7v.7Z" class="g0"/>
<path fill-rule="evenodd" d="M256.9,643.6h35.8v-.7H256.9v.7Z" class="g0"/>
<path fill-rule="evenodd" d="M292.7,642.9h.7V622.3h-.7v20.6Z" class="g0"/>
<path fill-rule="evenodd" d="M292.7,643.6h.7v-.7h-.7v.7Z" class="g0"/>
<path fill-rule="evenodd" d="M292.7,643.6h.7v-.7h-.7v.7Z" class="g0"/>
<path fill-rule="evenodd" d="M347.5,282.5h.8v-.7h-.8v.7Z" class="g2"/>
<path fill-rule="evenodd" d="M347.5,282.5h.8v-.7h-.8v.7Z" class="g2"/>
<path fill-rule="evenodd" d="M348.3,282.5H384v-.7H348.3v.7Z" class="g2"/>
<path fill-rule="evenodd" d="M384,282.5h.7v-.7H384v.7Z" class="g2"/>
<path fill-rule="evenodd" d="M384.7,282.5h35.8v-.7H384.7v.7Z" class="g2"/>
<path fill-rule="evenodd" d="M420.5,282.5h.7v-.7h-.7v.7Z" class="g2"/>
<path fill-rule="evenodd" d="M421.2,282.5h36v-.7h-36v.7Z" class="g2"/>
<path fill-rule="evenodd" d="M457.2,282.5h.7v-.7h-.7v.7Z" class="g2"/>
<path fill-rule="evenodd" d="M457.9,282.5h35.8v-.7H457.9v.7Z" class="g2"/>
<path fill-rule="evenodd" d="M493.7,282.5h.7v-.7h-.7v.7Z" class="g2"/>
<path fill-rule="evenodd" d="M494.4,282.5h35.8v-.7H494.4v.7Z" class="g2"/>
<path fill-rule="evenodd" d="M530.2,282.5h.7v-.7h-.7v.7Z" class="g2"/>
<path fill-rule="evenodd" d="M530.2,282.5h.7v-.7h-.7v.7Z" class="g2"/>
<path fill-rule="evenodd" d="M347.5,303.1h.8V282.6h-.8v20.5Z" class="g2"/>
<path fill-rule="evenodd" d="M384,303.1h.7V282.6H384v20.5Z" class="g2"/>
<path fill-rule="evenodd" d="M420.5,303.1h.7V282.6h-.7v20.5Z" class="g2"/>
<path fill-rule="evenodd" d="M457.2,303.1h.7V282.6h-.7v20.5Z" class="g2"/>
<path fill-rule="evenodd" d="M493.7,303.1h.7V282.6h-.7v20.5Z" class="g2"/>
<path fill-rule="evenodd" d="M530.2,303.1h.7V282.6h-.7v20.5Z" class="g2"/>
<path fill-rule="evenodd" d="M348.4,326h35.8V305.5H348.4V326Z" class="g3"/>
<path fill-rule="evenodd" d="M356.1,326h20.2V305.5H356.1V326Z" class="g3"/>
<path fill-rule="evenodd" d="M384.9,326h35.8V305.5H384.9V326Z" class="g3"/>
<path fill-rule="evenodd" d="M392.8,326h20V305.5h-20V326Z" class="g3"/>
<path fill-rule="evenodd" d="M421.4,326h35.8V305.5H421.4V326Z" class="g3"/>
<path fill-rule="evenodd" d="M429.3,326h20V305.5h-20V326Z" class="g3"/>
<path fill-rule="evenodd" d="M457.9,326h35.8V305.5H457.9V326Z" class="g3"/>
<path fill-rule="evenodd" d="M465.8,326h20V305.5h-20V326Z" class="g3"/>
<path fill-rule="evenodd" d="M494.4,326h36V305.5h-36V326Z" class="g3"/>
<path fill-rule="evenodd" d="M502.3,326h20.2V305.5H502.3V326Z" class="g3"/>
<path fill-rule="evenodd" d="M347.5,305.5h.8v-2.4h-.8v2.4Z" class="g2"/>
<path fill-rule="evenodd" d="M348.3,305.3H384v-2.2H348.3v2.2Z" class="g2"/>
<path fill-rule="evenodd" d="M348.3,305.5H384v-.2H348.3v.2Z" class="g3"/>
<path fill-rule="evenodd" d="M384.7,305.5h1.5v-.2h-1.5v.2Z" class="g3"/>
<path fill-rule="evenodd" d="M384,305.5h.7v-.2H384v.2Z" class="g2"/>
<path fill-rule="evenodd" d="M384,305.3h2.2v-2.2H384v2.2Z" class="g2"/>
<path fill-rule="evenodd" d="M386.2,305.3h34.3v-2.2H386.2v2.2Z" class="g2"/>
<path fill-rule="evenodd" d="M386.2,305.5h34.3v-.2H386.2v.2Z" class="g3"/>
<path fill-rule="evenodd" d="M421.2,305.5h1.5v-.2h-1.5v.2Z" class="g3"/>
<path fill-rule="evenodd" d="M420.5,305.5h.7v-.2h-.7v.2Z" class="g2"/>
<path fill-rule="evenodd" d="M420.5,305.3h2.2v-2.2h-2.2v2.2Z" class="g2"/>
<path fill-rule="evenodd" d="M422.7,305.3h34.5v-2.2H422.7v2.2Z" class="g2"/>
<path fill-rule="evenodd" d="M422.7,305.5h34.5v-.2H422.7v.2Z" class="g3"/>
<path fill-rule="evenodd" d="M457.9,305.5h1.5v-.2h-1.5v.2Z" class="g3"/>
<path fill-rule="evenodd" d="M457.2,305.5h.7v-.2h-.7v.2Z" class="g2"/>
<path fill-rule="evenodd" d="M457.2,305.3h2.2v-2.2h-2.2v2.2Z" class="g2"/>
<path fill-rule="evenodd" d="M459.4,305.3h34.3v-2.2H459.4v2.2Z" class="g2"/>
<path fill-rule="evenodd" d="M459.4,305.5h34.3v-.2H459.4v.2Z" class="g3"/>
<path fill-rule="evenodd" d="M494.4,305.5h1.5v-.2h-1.5v.2Z" class="g3"/>
<path fill-rule="evenodd" d="M493.7,305.5h.7v-.2h-.7v.2Z" class="g2"/>
<path fill-rule="evenodd" d="M493.7,305.3h2.2v-2.2h-2.2v2.2Z" class="g2"/>
<path fill-rule="evenodd" d="M495.9,305.3h34.3v-2.2H495.9v2.2Z" class="g2"/>
<path fill-rule="evenodd" d="M495.9,305.5h34.3v-.2H495.9v.2Z" class="g3"/>
<path fill-rule="evenodd" d="M530.2,305.5h.7v-2.4h-.7v2.4Z" class="g2"/>
<path fill-rule="evenodd" d="M347.5,326h.8V305.5h-.8V326Z" class="g2"/>
<path fill-rule="evenodd" d="M347.5,326.8h.8V326h-.8v.8Z" class="g2"/>
<path fill-rule="evenodd" d="M347.5,326.8h.8V326h-.8v.8Z" class="g2"/>
<path fill-rule="evenodd" d="M348.3,326.8H384V326H348.3v.8Z" class="g2"/>
<path fill-rule="evenodd" d="M384,326h.7V305.5H384V326Z" class="g2"/>
<path fill-rule="evenodd" d="M384,326.8h.7V326H384v.8Z" class="g2"/>
<path fill-rule="evenodd" d="M384.7,326.8h35.8V326H384.7v.8Z" class="g2"/>
<path fill-rule="evenodd" d="M420.5,326h.7V305.5h-.7V326Z" class="g2"/>
<path fill-rule="evenodd" d="M420.5,326.8h.7V326h-.7v.8Z" class="g2"/>
<path fill-rule="evenodd" d="M421.2,326.8h36V326h-36v.8Z" class="g2"/>
<path fill-rule="evenodd" d="M457.2,326h.7V305.5h-.7V326Z" class="g2"/>
<path fill-rule="evenodd" d="M457.2,326.8h.7V326h-.7v.8Z" class="g2"/>
<path fill-rule="evenodd" d="M457.9,326.8h35.8V326H457.9v.8Z" class="g2"/>
<path fill-rule="evenodd" d="M493.7,326h.7V305.5h-.7V326Z" class="g2"/>
<path fill-rule="evenodd" d="M493.7,326.8h.7V326h-.7v.8Z" class="g2"/>
<path fill-rule="evenodd" d="M494.4,326.8h35.8V326H494.4v.8Z" class="g2"/>
<path fill-rule="evenodd" d="M530.2,326h.7V305.5h-.7V326Z" class="g2"/>
<path fill-rule="evenodd" d="M530.2,326.8h.7V326h-.7v.8Z" class="g2"/>
<path fill-rule="evenodd" d="M530.2,326.8h.7V326h-.7v.8Z" class="g2"/>
<path fill-rule="evenodd" d="M347.5,361.8h.8v-.7h-.8v.7Z" class="g0"/>
<path fill-rule="evenodd" d="M347.5,361.8h.8v-.7h-.8v.7Z" class="g0"/>
<path fill-rule="evenodd" d="M348.3,361.8H384v-.7H348.3v.7Z" class="g0"/>
<path fill-rule="evenodd" d="M384,361.8h.7v-.7H384v.7Z" class="g0"/>
<path fill-rule="evenodd" d="M384.7,361.8h35.8v-.7H384.7v.7Z" class="g0"/>
<path fill-rule="evenodd" d="M420.5,361.8h.7v-.7h-.7v.7Z" class="g0"/>
<path fill-rule="evenodd" d="M421.2,361.8h36v-.7h-36v.7Z" class="g0"/>
<path fill-rule="evenodd" d="M457.2,361.8h.7v-.7h-.7v.7Z" class="g0"/>
<path fill-rule="evenodd" d="M457.9,361.8h35.8v-.7H457.9v.7Z" class="g0"/>
<path fill-rule="evenodd" d="M493.7,361.8h.7v-.7h-.7v.7Z" class="g0"/>
<path fill-rule="evenodd" d="M494.4,361.8h35.8v-.7H494.4v.7Z" class="g0"/>
<path fill-rule="evenodd" d="M530.2,361.8h.7v-.7h-.7v.7Z" class="g0"/>
<path fill-rule="evenodd" d="M530.2,361.8h.7v-.7h-.7v.7Z" class="g0"/>
<path fill-rule="evenodd" d="M347.5,382.3h.8V361.8h-.8v20.5Z" class="g0"/>
<path fill-rule="evenodd" d="M384,382.3h.7V361.8H384v20.5Z" class="g0"/>
<path fill-rule="evenodd" d="M420.5,382.3h.7V361.8h-.7v20.5Z" class="g0"/>
<path fill-rule="evenodd" d="M457.2,382.3h.7V361.8h-.7v20.5Z" class="g0"/>
<path fill-rule="evenodd" d="M493.7,382.3h.7V361.8h-.7v20.5Z" class="g0"/>
<path fill-rule="evenodd" d="M530.2,382.3h.7V361.8h-.7v20.5Z" class="g0"/>
<path fill-rule="evenodd" d="M348.4,405.2h35.8V384.7H348.4v20.5Z" class="g1"/>
<path fill-rule="evenodd" d="M356.1,405.2h20.2V384.7H356.1v20.5Z" class="g1"/>
<path fill-rule="evenodd" d="M384.9,405.2h35.8V384.7H384.9v20.5Z" class="g1"/>
<path fill-rule="evenodd" d="M392.8,405.2h20V384.7h-20v20.5Z" class="g1"/>
<path fill-rule="evenodd" d="M421.4,405.2h35.8V384.7H421.4v20.5Z" class="g1"/>
<path fill-rule="evenodd" d="M429.3,405.2h20V384.7h-20v20.5Z" class="g1"/>
<path fill-rule="evenodd" d="M457.9,405.2h35.8V384.7H457.9v20.5Z" class="g1"/>
<path fill-rule="evenodd" d="M465.8,405.2h20V384.7h-20v20.5Z" class="g1"/>
<path fill-rule="evenodd" d="M494.4,405.2h36V384.7h-36v20.5Z" class="g1"/>
<path fill-rule="evenodd" d="M502.3,405.2h20.2V384.7H502.3v20.5Z" class="g1"/>
<path fill-rule="evenodd" d="M347.5,384.7h.8v-2.4h-.8v2.4Z" class="g0"/>
<path fill-rule="evenodd" d="M348.3,384.5H384v-2.2H348.3v2.2Z" class="g0"/>
<path fill-rule="evenodd" d="M348.3,384.7H384v-.2H348.3v.2Z" class="g1"/>
<path fill-rule="evenodd" d="M384.7,384.7h1.5v-.2h-1.5v.2Z" class="g1"/>
<path fill-rule="evenodd" d="M384,384.7h.7v-.2H384v.2Z" class="g0"/>
<path fill-rule="evenodd" d="M384,384.5h2.2v-2.2H384v2.2Z" class="g0"/>
<path fill-rule="evenodd" d="M386.2,384.5h34.3v-2.2H386.2v2.2Z" class="g0"/>
<path fill-rule="evenodd" d="M386.2,384.7h34.3v-.2H386.2v.2Z" class="g1"/>
<path fill-rule="evenodd" d="M421.2,384.7h1.5v-.2h-1.5v.2Z" class="g1"/>
<path fill-rule="evenodd" d="M420.5,384.7h.7v-.2h-.7v.2Z" class="g0"/>
<path fill-rule="evenodd" d="M420.5,384.5h2.2v-2.2h-2.2v2.2Z" class="g0"/>
<path fill-rule="evenodd" d="M422.7,384.5h34.5v-2.2H422.7v2.2Z" class="g0"/>
<path fill-rule="evenodd" d="M422.7,384.7h34.5v-.2H422.7v.2Z" class="g1"/>
<path fill-rule="evenodd" d="M457.9,384.7h1.5v-.2h-1.5v.2Z" class="g1"/>
<path fill-rule="evenodd" d="M457.2,384.7h.7v-.2h-.7v.2Z" class="g0"/>
<path fill-rule="evenodd" d="M457.2,384.5h2.2v-2.2h-2.2v2.2Z" class="g0"/>
<path fill-rule="evenodd" d="M459.4,384.5h34.3v-2.2H459.4v2.2Z" class="g0"/>
<path fill-rule="evenodd" d="M459.4,384.7h34.3v-.2H459.4v.2Z" class="g1"/>
<path fill-rule="evenodd" d="M494.4,384.7h1.5v-.2h-1.5v.2Z" class="g1"/>
<path fill-rule="evenodd" d="M493.7,384.7h.7v-.2h-.7v.2Z" class="g0"/>
<path fill-rule="evenodd" d="M493.7,384.5h2.2v-2.2h-2.2v2.2Z" class="g0"/>
<path fill-rule="evenodd" d="M495.9,384.5h34.3v-2.2H495.9v2.2Z" class="g0"/>
<path fill-rule="evenodd" d="M495.9,384.7h34.3v-.2H495.9v.2Z" class="g1"/>
<path fill-rule="evenodd" d="M530.2,384.7h.7v-2.4h-.7v2.4Z" class="g0"/>
<path fill-rule="evenodd" d="M347.5,405.2h.8V384.7h-.8v20.5Z" class="g0"/>
<path fill-rule="evenodd" d="M347.5,406h.8v-.8h-.8v.8Z" class="g0"/>
<path fill-rule="evenodd" d="M347.5,406h.8v-.8h-.8v.8Z" class="g0"/>
<path fill-rule="evenodd" d="M348.3,406H384v-.8H348.3v.8Z" class="g0"/>
<path fill-rule="evenodd" d="M384,405.2h.7V384.7H384v20.5Z" class="g0"/>
<path fill-rule="evenodd" d="M384,406h.7v-.8H384v.8Z" class="g0"/>
<path fill-rule="evenodd" d="M384.7,406h35.8v-.8H384.7v.8Z" class="g0"/>
<path fill-rule="evenodd" d="M420.5,405.2h.7V384.7h-.7v20.5Z" class="g0"/>
<path fill-rule="evenodd" d="M420.5,406h.7v-.8h-.7v.8Z" class="g0"/>
<path fill-rule="evenodd" d="M421.2,406h36v-.8h-36v.8Z" class="g0"/>
<path fill-rule="evenodd" d="M457.2,405.2h.7V384.7h-.7v20.5Z" class="g0"/>
<path fill-rule="evenodd" d="M457.2,406h.7v-.8h-.7v.8Z" class="g0"/>
<path fill-rule="evenodd" d="M457.9,406h35.8v-.8H457.9v.8Z" class="g0"/>
<path fill-rule="evenodd" d="M493.7,405.2h.7V384.7h-.7v20.5Z" class="g0"/>
<path fill-rule="evenodd" d="M493.7,406h.7v-.8h-.7v.8Z" class="g0"/>
<path fill-rule="evenodd" d="M494.4,406h35.8v-.8H494.4v.8Z" class="g0"/>
<path fill-rule="evenodd" d="M530.2,405.2h.7V384.7h-.7v20.5Z" class="g0"/>
<path fill-rule="evenodd" d="M530.2,406h.7v-.8h-.7v.8Z" class="g0"/>
<path fill-rule="evenodd" d="M530.2,406h.7v-.8h-.7v.8Z" class="g0"/>
<path fill-rule="evenodd" d="M347.5,441h.8v-.7h-.8v.7Z" class="g2"/>
<path fill-rule="evenodd" d="M347.5,441h.8v-.7h-.8v.7Z" class="g2"/>
<path fill-rule="evenodd" d="M348.3,441H384v-.7H348.3v.7Z" class="g2"/>
<path fill-rule="evenodd" d="M384,441h.7v-.7H384v.7Z" class="g2"/>
<path fill-rule="evenodd" d="M384.7,441h35.8v-.7H384.7v.7Z" class="g2"/>
<path fill-rule="evenodd" d="M420.5,441h.7v-.7h-.7v.7Z" class="g2"/>
<path fill-rule="evenodd" d="M421.2,441h36v-.7h-36v.7Z" class="g2"/>
<path fill-rule="evenodd" d="M457.2,441h.7v-.7h-.7v.7Z" class="g2"/>
<path fill-rule="evenodd" d="M457.9,441h35.8v-.7H457.9v.7Z" class="g2"/>
<path fill-rule="evenodd" d="M493.7,441h.7v-.7h-.7v.7Z" class="g2"/>
<path fill-rule="evenodd" d="M494.4,441h35.8v-.7H494.4v.7Z" class="g2"/>
<path fill-rule="evenodd" d="M530.2,441h.7v-.7h-.7v.7Z" class="g2"/>
<path fill-rule="evenodd" d="M530.2,441h.7v-.7h-.7v.7Z" class="g2"/>
<path fill-rule="evenodd" d="M347.5,461.5h.8V441h-.8v20.5Z" class="g2"/>
<path fill-rule="evenodd" d="M384,461.5h.7V441H384v20.5Z" class="g2"/>
<path fill-rule="evenodd" d="M420.5,461.5h.7V441h-.7v20.5Z" class="g2"/>
<path fill-rule="evenodd" d="M457.2,461.5h.7V441h-.7v20.5Z" class="g2"/>
<path fill-rule="evenodd" d="M493.7,461.5h.7V441h-.7v20.5Z" class="g2"/>
<path fill-rule="evenodd" d="M530.2,461.5h.7V441h-.7v20.5Z" class="g2"/>
<path fill-rule="evenodd" d="M348.4,484.5h35.8V463.9H348.4v20.6Z" class="g3"/>
<path fill-rule="evenodd" d="M356.1,484.5h20.2V463.9H356.1v20.6Z" class="g3"/>
<path fill-rule="evenodd" d="M384.9,484.5h35.8V463.9H384.9v20.6Z" class="g3"/>
<path fill-rule="evenodd" d="M392.8,484.5h20V463.9h-20v20.6Z" class="g3"/>
<path fill-rule="evenodd" d="M421.4,484.5h35.8V463.9H421.4v20.6Z" class="g3"/>
<path fill-rule="evenodd" d="M429.3,484.5h20V463.9h-20v20.6Z" class="g3"/>
<path fill-rule="evenodd" d="M457.9,484.5h35.8V463.9H457.9v20.6Z" class="g3"/>
<path fill-rule="evenodd" d="M465.8,484.5h20V463.9h-20v20.6Z" class="g3"/>
<path fill-rule="evenodd" d="M494.4,484.5h36V463.9h-36v20.6Z" class="g3"/>
<path fill-rule="evenodd" d="M502.3,484.5h20.2V463.9H502.3v20.6Z" class="g3"/>
<path fill-rule="evenodd" d="M347.5,463.9h.8v-2.4h-.8v2.4Z" class="g2"/>
<path fill-rule="evenodd" d="M348.3,463.7H384v-2.2H348.3v2.2Z" class="g2"/>
<path fill-rule="evenodd" d="M348.3,463.9H384v-.2H348.3v.2Z" class="g3"/>
<path fill-rule="evenodd" d="M384.7,463.9h1.5v-.2h-1.5v.2Z" class="g3"/>
<path fill-rule="evenodd" d="M384,463.9h.7v-.2H384v.2Z" class="g2"/>
<path fill-rule="evenodd" d="M384,463.7h2.2v-2.2H384v2.2Z" class="g2"/>
<path fill-rule="evenodd" d="M386.2,463.7h34.3v-2.2H386.2v2.2Z" class="g2"/>
<path fill-rule="evenodd" d="M386.2,463.9h34.3v-.2H386.2v.2Z" class="g3"/>
<path fill-rule="evenodd" d="M421.2,463.9h1.5v-.2h-1.5v.2Z" class="g3"/>
<path fill-rule="evenodd" d="M420.5,463.9h.7v-.2h-.7v.2Z" class="g2"/>
<path fill-rule="evenodd" d="M420.5,463.7h2.2v-2.2h-2.2v2.2Z" class="g2"/>
<path fill-rule="evenodd" d="M422.7,463.7h34.5v-2.2H422.7v2.2Z" class="g2"/>
<path fill-rule="evenodd" d="M422.7,463.9h34.5v-.2H422.7v.2Z" class="g3"/>
<path fill-rule="evenodd" d="M457.9,463.9h1.5v-.2h-1.5v.2Z" class="g3"/>
<path fill-rule="evenodd" d="M457.2,463.9h.7v-.2h-.7v.2Z" class="g2"/>
<path fill-rule="evenodd" d="M457.2,463.7h2.2v-2.2h-2.2v2.2Z" class="g2"/>
<path fill-rule="evenodd" d="M459.4,463.7h34.3v-2.2H459.4v2.2Z" class="g2"/>
<path fill-rule="evenodd" d="M459.4,463.9h34.3v-.2H459.4v.2Z" class="g3"/>
<path fill-rule="evenodd" d="M494.4,463.9h1.5v-.2h-1.5v.2Z" class="g3"/>
<path fill-rule="evenodd" d="M493.7,463.9h.7v-.2h-.7v.2Z" class="g2"/>
<path fill-rule="evenodd" d="M493.7,463.7h2.2v-2.2h-2.2v2.2Z" class="g2"/>
<path fill-rule="evenodd" d="M495.9,463.7h34.3v-2.2H495.9v2.2Z" class="g2"/>
<path fill-rule="evenodd" d="M495.9,463.9h34.3v-.2H495.9v.2Z" class="g3"/>
<path fill-rule="evenodd" d="M530.2,463.9h.7v-2.4h-.7v2.4Z" class="g2"/>
<path fill-rule="evenodd" d="M347.5,484.5h.8V463.9h-.8v20.6Z" class="g2"/>
<path fill-rule="evenodd" d="M347.5,485.2h.8v-.7h-.8v.7Z" class="g2"/>
<path fill-rule="evenodd" d="M347.5,485.2h.8v-.7h-.8v.7Z" class="g2"/>
<path fill-rule="evenodd" d="M348.3,485.2H384v-.7H348.3v.7Z" class="g2"/>
<path fill-rule="evenodd" d="M384,484.5h.7V463.9H384v20.6Z" class="g2"/>
<path fill-rule="evenodd" d="M384,485.2h.7v-.7H384v.7Z" class="g2"/>
<path fill-rule="evenodd" d="M384.7,485.2h35.8v-.7H384.7v.7Z" class="g2"/>
<path fill-rule="evenodd" d="M420.5,484.5h.7V463.9h-.7v20.6Z" class="g2"/>
<path fill-rule="evenodd" d="M420.5,485.2h.7v-.7h-.7v.7Z" class="g2"/>
<path fill-rule="evenodd" d="M421.2,485.2h36v-.7h-36v.7Z" class="g2"/>
<path fill-rule="evenodd" d="M457.2,484.5h.7V463.9h-.7v20.6Z" class="g2"/>
<path fill-rule="evenodd" d="M457.2,485.2h.7v-.7h-.7v.7Z" class="g2"/>
<path fill-rule="evenodd" d="M457.9,485.2h35.8v-.7H457.9v.7Z" class="g2"/>
<path fill-rule="evenodd" d="M493.7,484.5h.7V463.9h-.7v20.6Z" class="g2"/>
<path fill-rule="evenodd" d="M493.7,485.2h.7v-.7h-.7v.7Z" class="g2"/>
<path fill-rule="evenodd" d="M494.4,485.2h35.8v-.7H494.4v.7Z" class="g2"/>
<path fill-rule="evenodd" d="M530.2,484.5h.7V463.9h-.7v20.6Z" class="g2"/>
<path fill-rule="evenodd" d="M530.2,485.2h.7v-.7h-.7v.7Z" class="g2"/>
<path fill-rule="evenodd" d="M530.2,485.2h.7v-.7h-.7v.7Z" class="g2"/>
<path fill-rule="evenodd" d="M347.5,520.2h.8v-.7h-.8v.7Z" class="g0"/>
<path fill-rule="evenodd" d="M347.5,520.2h.8v-.7h-.8v.7Z" class="g0"/>
<path fill-rule="evenodd" d="M348.3,520.2H384v-.7H348.3v.7Z" class="g0"/>
<path fill-rule="evenodd" d="M384,520.2h.7v-.7H384v.7Z" class="g0"/>
<path fill-rule="evenodd" d="M384.7,520.2h35.8v-.7H384.7v.7Z" class="g0"/>
<path fill-rule="evenodd" d="M420.5,520.2h.7v-.7h-.7v.7Z" class="g0"/>
<path fill-rule="evenodd" d="M421.2,520.2h36v-.7h-36v.7Z" class="g0"/>
<path fill-rule="evenodd" d="M457.2,520.2h.7v-.7h-.7v.7Z" class="g0"/>
<path fill-rule="evenodd" d="M457.9,520.2h35.8v-.7H457.9v.7Z" class="g0"/>
<path fill-rule="evenodd" d="M493.7,520.2h.7v-.7h-.7v.7Z" class="g0"/>
<path fill-rule="evenodd" d="M494.4,520.2h35.8v-.7H494.4v.7Z" class="g0"/>
<path fill-rule="evenodd" d="M530.2,520.2h.7v-.7h-.7v.7Z" class="g0"/>
<path fill-rule="evenodd" d="M530.2,520.2h.7v-.7h-.7v.7Z" class="g0"/>
<path fill-rule="evenodd" d="M347.5,540.8h.8V520.2h-.8v20.6Z" class="g0"/>
<path fill-rule="evenodd" d="M384,540.8h.7V520.2H384v20.6Z" class="g0"/>
<path fill-rule="evenodd" d="M420.5,540.8h.7V520.2h-.7v20.6Z" class="g0"/>
<path fill-rule="evenodd" d="M457.2,540.8h.7V520.2h-.7v20.6Z" class="g0"/>
<path fill-rule="evenodd" d="M493.7,540.8h.7V520.2h-.7v20.6Z" class="g0"/>
<path fill-rule="evenodd" d="M530.2,540.8h.7V520.2h-.7v20.6Z" class="g0"/>
<path fill-rule="evenodd" d="M348.4,563.7h35.8V543.1H348.4v20.6Z" class="g1"/>
<path fill-rule="evenodd" d="M356.1,563.7h20.2V543.1H356.1v20.6Z" class="g1"/>
<path fill-rule="evenodd" d="M384.9,563.7h35.8V543.1H384.9v20.6Z" class="g1"/>
<path fill-rule="evenodd" d="M392.8,563.7h20V543.1h-20v20.6Z" class="g1"/>
<path fill-rule="evenodd" d="M421.4,563.7h35.8V543.1H421.4v20.6Z" class="g1"/>
<path fill-rule="evenodd" d="M429.3,563.7h20V543.1h-20v20.6Z" class="g1"/>
<path fill-rule="evenodd" d="M457.9,563.7h35.8V543.1H457.9v20.6Z" class="g1"/>
<path fill-rule="evenodd" d="M465.8,563.7h20V543.1h-20v20.6Z" class="g1"/>
<path fill-rule="evenodd" d="M494.4,563.7h36V543.1h-36v20.6Z" class="g1"/>
<path fill-rule="evenodd" d="M502.3,563.7h20.2V543.1H502.3v20.6Z" class="g1"/>
<path fill-rule="evenodd" d="M347.5,543.1h.8v-2.3h-.8v2.3Z" class="g0"/>
<path fill-rule="evenodd" d="M348.3,543H384v-2.2H348.3V543Z" class="g0"/>
<path fill-rule="evenodd" d="M348.3,543.1H384V543H348.3v.1Z" class="g1"/>
<path fill-rule="evenodd" d="M384.7,543.1h1.5V543h-1.5v.1Z" class="g1"/>
<path fill-rule="evenodd" d="M384,543.1h.7V543H384v.1Z" class="g0"/>
<path fill-rule="evenodd" d="M384,543h2.2v-2.2H384V543Z" class="g0"/>
<path fill-rule="evenodd" d="M386.2,543h34.3v-2.2H386.2V543Z" class="g0"/>
<path fill-rule="evenodd" d="M386.2,543.1h34.3V543H386.2v.1Z" class="g1"/>
<path fill-rule="evenodd" d="M421.2,543.1h1.5V543h-1.5v.1Z" class="g1"/>
<path fill-rule="evenodd" d="M420.5,543.1h.7V543h-.7v.1Z" class="g0"/>
<path fill-rule="evenodd" d="M420.5,543h2.2v-2.2h-2.2V543Z" class="g0"/>
<path fill-rule="evenodd" d="M422.7,543h34.5v-2.2H422.7V543Z" class="g0"/>
<path fill-rule="evenodd" d="M422.7,543.1h34.5V543H422.7v.1Z" class="g1"/>
<path fill-rule="evenodd" d="M457.9,543.1h1.5V543h-1.5v.1Z" class="g1"/>
<path fill-rule="evenodd" d="M457.2,543.1h.7V543h-.7v.1Z" class="g0"/>
<path fill-rule="evenodd" d="M457.2,543h2.2v-2.2h-2.2V543Z" class="g0"/>
<path fill-rule="evenodd" d="M459.4,543h34.3v-2.2H459.4V543Z" class="g0"/>
<path fill-rule="evenodd" d="M459.4,543.1h34.3V543H459.4v.1Z" class="g1"/>
<path fill-rule="evenodd" d="M494.4,543.1h1.5V543h-1.5v.1Z" class="g1"/>
<path fill-rule="evenodd" d="M493.7,543.1h.7V543h-.7v.1Z" class="g0"/>
<path fill-rule="evenodd" d="M493.7,543h2.2v-2.2h-2.2V543Z" class="g0"/>
<path fill-rule="evenodd" d="M495.9,543h34.3v-2.2H495.9V543Z" class="g0"/>
<path fill-rule="evenodd" d="M495.9,543.1h34.3V543H495.9v.1Z" class="g1"/>
<path fill-rule="evenodd" d="M530.2,543.1h.7v-2.3h-.7v2.3Z" class="g0"/>
<path fill-rule="evenodd" d="M347.5,563.7h.8V543.1h-.8v20.6Z" class="g0"/>
<path fill-rule="evenodd" d="M347.5,564.4h.8v-.7h-.8v.7Z" class="g0"/>
<path fill-rule="evenodd" d="M347.5,564.4h.8v-.7h-.8v.7Z" class="g0"/>
<path fill-rule="evenodd" d="M348.3,564.4H384v-.7H348.3v.7Z" class="g0"/>
<path fill-rule="evenodd" d="M384,563.7h.7V543.1H384v20.6Z" class="g0"/>
<path fill-rule="evenodd" d="M384,564.4h.7v-.7H384v.7Z" class="g0"/>
<path fill-rule="evenodd" d="M384.7,564.4h35.8v-.7H384.7v.7Z" class="g0"/>
<path fill-rule="evenodd" d="M420.5,563.7h.7V543.1h-.7v20.6Z" class="g0"/>
<path fill-rule="evenodd" d="M420.5,564.4h.7v-.7h-.7v.7Z" class="g0"/>
<path fill-rule="evenodd" d="M421.2,564.4h36v-.7h-36v.7Z" class="g0"/>
<path fill-rule="evenodd" d="M457.2,563.7h.7V543.1h-.7v20.6Z" class="g0"/>
<path fill-rule="evenodd" d="M457.2,564.4h.7v-.7h-.7v.7Z" class="g0"/>
<path fill-rule="evenodd" d="M457.9,564.4h35.8v-.7H457.9v.7Z" class="g0"/>
<path fill-rule="evenodd" d="M493.7,563.7h.7V543.1h-.7v20.6Z" class="g0"/>
<path fill-rule="evenodd" d="M493.7,564.4h.7v-.7h-.7v.7Z" class="g0"/>
<path fill-rule="evenodd" d="M494.4,564.4h35.8v-.7H494.4v.7Z" class="g0"/>
<path fill-rule="evenodd" d="M530.2,563.7h.7V543.1h-.7v20.6Z" class="g0"/>
<path fill-rule="evenodd" d="M530.2,564.4h.7v-.7h-.7v.7Z" class="g0"/>
<path fill-rule="evenodd" d="M530.2,564.4h.7v-.7h-.7v.7Z" class="g0"/>
<path fill-rule="evenodd" d="M347.5,599.4h.8v-.7h-.8v.7Z" class="g2"/>
<path fill-rule="evenodd" d="M347.5,599.4h.8v-.7h-.8v.7Z" class="g2"/>
<path fill-rule="evenodd" d="M348.3,599.4H384v-.7H348.3v.7Z" class="g2"/>
<path fill-rule="evenodd" d="M384,599.4h.7v-.7H384v.7Z" class="g2"/>
<path fill-rule="evenodd" d="M384.7,599.4h35.8v-.7H384.7v.7Z" class="g2"/>
<path fill-rule="evenodd" d="M420.5,599.4h.7v-.7h-.7v.7Z" class="g2"/>
<path fill-rule="evenodd" d="M421.2,599.4h36v-.7h-36v.7Z" class="g2"/>
<path fill-rule="evenodd" d="M457.2,599.4h.7v-.7h-.7v.7Z" class="g2"/>
<path fill-rule="evenodd" d="M457.9,599.4h35.8v-.7H457.9v.7Z" class="g2"/>
<path fill-rule="evenodd" d="M493.7,599.4h.7v-.7h-.7v.7Z" class="g2"/>
<path fill-rule="evenodd" d="M494.4,599.4h35.8v-.7H494.4v.7Z" class="g2"/>
<path fill-rule="evenodd" d="M530.2,599.4h.7v-.7h-.7v.7Z" class="g2"/>
<path fill-rule="evenodd" d="M530.2,599.4h.7v-.7h-.7v.7Z" class="g2"/>
<path fill-rule="evenodd" d="M347.5,620h.8V599.4h-.8V620Z" class="g2"/>
<path fill-rule="evenodd" d="M384,620h.7V599.4H384V620Z" class="g2"/>
<path fill-rule="evenodd" d="M420.5,620h.7V599.4h-.7V620Z" class="g2"/>
<path fill-rule="evenodd" d="M457.2,620h.7V599.4h-.7V620Z" class="g2"/>
<path fill-rule="evenodd" d="M493.7,620h.7V599.4h-.7V620Z" class="g2"/>
<path fill-rule="evenodd" d="M530.2,620h.7V599.4h-.7V620Z" class="g2"/>
<path fill-rule="evenodd" d="M348.4,642.9h35.8V622.3H348.4v20.6Z" class="g3"/>
<path fill-rule="evenodd" d="M356.1,642.9h20.2V622.3H356.1v20.6Z" class="g3"/>
<path fill-rule="evenodd" d="M384.9,642.9h35.8V622.3H384.9v20.6Z" class="g3"/>
<path fill-rule="evenodd" d="M392.8,642.9h20V622.3h-20v20.6Z" class="g3"/>
<path fill-rule="evenodd" d="M421.4,642.9h35.8V622.3H421.4v20.6Z" class="g3"/>
<path fill-rule="evenodd" d="M429.3,642.9h20V622.3h-20v20.6Z" class="g3"/>
<path fill-rule="evenodd" d="M457.9,642.9h35.8V622.3H457.9v20.6Z" class="g3"/>
<path fill-rule="evenodd" d="M465.8,642.9h20V622.3h-20v20.6Z" class="g3"/>
<path fill-rule="evenodd" d="M494.4,642.9h36V622.3h-36v20.6Z" class="g3"/>
<path fill-rule="evenodd" d="M502.3,642.9h20.2V622.3H502.3v20.6Z" class="g3"/>
<path fill-rule="evenodd" d="M347.5,622.3h.8V620h-.8v2.3Z" class="g2"/>
<path fill-rule="evenodd" d="M348.3,622.2H384V620H348.3v2.2Z" class="g2"/>
<path fill-rule="evenodd" d="M348.3,622.3H384v-.1H348.3v.1Z" class="g3"/>
<path fill-rule="evenodd" d="M384.7,622.3h1.5v-.1h-1.5v.1Z" class="g3"/>
<path fill-rule="evenodd" d="M384,622.3h.7v-.1H384v.1Z" class="g2"/>
<path fill-rule="evenodd" d="M384,622.2h2.2V620H384v2.2Z" class="g2"/>
<path fill-rule="evenodd" d="M386.2,622.2h34.3V620H386.2v2.2Z" class="g2"/>
<path fill-rule="evenodd" d="M386.2,622.3h34.3v-.1H386.2v.1Z" class="g3"/>
<path fill-rule="evenodd" d="M421.2,622.3h1.5v-.1h-1.5v.1Z" class="g3"/>
<path fill-rule="evenodd" d="M420.5,622.3h.7v-.1h-.7v.1Z" class="g2"/>
<path fill-rule="evenodd" d="M420.5,622.2h2.2V620h-2.2v2.2Z" class="g2"/>
<path fill-rule="evenodd" d="M422.7,622.2h34.5V620H422.7v2.2Z" class="g2"/>
<path fill-rule="evenodd" d="M422.7,622.3h34.5v-.1H422.7v.1Z" class="g3"/>
<path fill-rule="evenodd" d="M457.9,622.3h1.5v-.1h-1.5v.1Z" class="g3"/>
<path fill-rule="evenodd" d="M457.2,622.3h.7v-.1h-.7v.1Z" class="g2"/>
<path fill-rule="evenodd" d="M457.2,622.2h2.2V620h-2.2v2.2Z" class="g2"/>
<path fill-rule="evenodd" d="M459.4,622.2h34.3V620H459.4v2.2Z" class="g2"/>
<path fill-rule="evenodd" d="M459.4,622.3h34.3v-.1H459.4v.1Z" class="g3"/>
<path fill-rule="evenodd" d="M494.4,622.3h1.5v-.1h-1.5v.1Z" class="g3"/>
<path fill-rule="evenodd" d="M493.7,622.3h.7v-.1h-.7v.1Z" class="g2"/>
<path fill-rule="evenodd" d="M493.7,622.2h2.2V620h-2.2v2.2Z" class="g2"/>
<path fill-rule="evenodd" d="M495.9,622.2h34.3V620H495.9v2.2Z" class="g2"/>
<path fill-rule="evenodd" d="M495.9,622.3h34.3v-.1H495.9v.1Z" class="g3"/>
<path fill-rule="evenodd" d="M530.2,622.3h.7V620h-.7v2.3Z" class="g2"/>
<path fill-rule="evenodd" d="M347.5,642.9h.8V622.3h-.8v20.6Z" class="g2"/>
<path fill-rule="evenodd" d="M347.5,643.6h.8v-.7h-.8v.7Z" class="g2"/>
<path fill-rule="evenodd" d="M347.5,643.6h.8v-.7h-.8v.7Z" class="g2"/>
<path fill-rule="evenodd" d="M348.3,643.6H384v-.7H348.3v.7Z" class="g2"/>
<path fill-rule="evenodd" d="M384,642.9h.7V622.3H384v20.6Z" class="g2"/>
<path fill-rule="evenodd" d="M384,643.6h.7v-.7H384v.7Z" class="g2"/>
<path fill-rule="evenodd" d="M384.7,643.6h35.8v-.7H384.7v.7Z" class="g2"/>
<path fill-rule="evenodd" d="M420.5,642.9h.7V622.3h-.7v20.6Z" class="g2"/>
<path fill-rule="evenodd" d="M420.5,643.6h.7v-.7h-.7v.7Z" class="g2"/>
<path fill-rule="evenodd" d="M421.2,643.6h36v-.7h-36v.7Z" class="g2"/>
<path fill-rule="evenodd" d="M457.2,642.9h.7V622.3h-.7v20.6Z" class="g2"/>
<path fill-rule="evenodd" d="M457.2,643.6h.7v-.7h-.7v.7Z" class="g2"/>
<path fill-rule="evenodd" d="M457.9,643.6h35.8v-.7H457.9v.7Z" class="g2"/>
<path fill-rule="evenodd" d="M493.7,642.9h.7V622.3h-.7v20.6Z" class="g2"/>
<path fill-rule="evenodd" d="M493.7,643.6h.7v-.7h-.7v.7Z" class="g2"/>
<path fill-rule="evenodd" d="M494.4,643.6h35.8v-.7H494.4v.7Z" class="g2"/>
<path fill-rule="evenodd" d="M530.2,642.9h.7V622.3h-.7v20.6Z" class="g2"/>
<path fill-rule="evenodd" d="M530.2,643.6h.7v-.7h-.7v.7Z" class="g2"/>
<path fill-rule="evenodd" d="M530.2,643.6h.7v-.7h-.7v.7Z" class="g2"/>
<path fill-rule="evenodd" d="M110.4,51.7H530.3V51H110.4v.7Z" class="g4"/>
<path fill-rule="evenodd" d="M110.4,99.2H530.3V78.6H110.4V99.2Z" class="g5"/>
<path fill-rule="evenodd" d="M118.7,99.2H522.1V78.6H118.7V99.2Z" class="g5"/>
<path fill-rule="evenodd" d="M110.4,78.5H530.3v-.8H110.4v.8Z" class="g4"/>
<path fill-rule="evenodd" d="M110.4,140.1H530.3V119.6H110.4v20.5Z" class="g5"/>
<path fill-rule="evenodd" d="M118.7,140.1H522.1V119.6H118.7v20.5Z" class="g5"/>
<path fill-rule="evenodd" d="M110.4,181.2H530.3V160.6H110.4v20.6Z" class="g5"/>
<path fill-rule="evenodd" d="M118.7,181.2H522.1V160.6H118.7v20.6Z" class="g5"/>
<path fill-rule="evenodd" d="M109.3,181.9h421v-.7h-421v.7Z" class="g4"/>
<path fill-rule="evenodd" d="M97.4,276.1H517.9V240.7H97.4v35.4Z" class="g6"/>
<path d="M97.4,276.1H517.9V240.7H97.4v35.4Z" class="g7"/>
<path fill-rule="evenodd" d="M36.7,37.4h.7v-.7h-.7v.7Z" class="g4"/>
<path fill-rule="evenodd" d="M36.7,37.4h.7v-.7h-.7v.7Z" class="g4"/>
<path fill-rule="evenodd" d="M37.4,37.4H603.7v-.7H37.4v.7Z" class="g4"/>
<path fill-rule="evenodd" d="M603.7,37.4h.7v-.7h-.7v.7Z" class="g4"/>
<path fill-rule="evenodd" d="M603.7,37.4h.7v-.7h-.7v.7Z" class="g4"/>
<path fill-rule="evenodd" d="M36.7,872.3h.7V37.4h-.7V872.3Z" class="g4"/>
<path fill-rule="evenodd" d="M603.7,872.3h.7V37.4h-.7V872.3Z" class="g4"/>
<path fill-rule="evenodd" d="M36.7,873h.7v-.7h-.7v.7Z" class="g4"/>
<path fill-rule="evenodd" d="M36.7,873h.7v-.7h-.7v.7Z" class="g4"/>
<path fill-rule="evenodd" d="M37.4,873H603.7v-.7H37.4v.7Z" class="g4"/>
<path fill-rule="evenodd" d="M603.7,873h.7v-.7h-.7v.7Z" class="g4"/>
<path fill-rule="evenodd" d="M603.7,873h.7v-.7h-.7v.7Z" class="g4"/>
</svg>